<svg width="24" height="24" viewBox="0 0 24 24" fill="none" xmlns="http://www.w3.org/2000/svg">
<path d="M14.6673 15.3711L16.0451 13.9928C16.2307 13.8094 16.4654 13.6839 16.7209 13.6315C16.9764 13.5791 17.2416 13.602 17.4844 13.6974L19.1635 14.3681C19.4088 14.4677 19.6191 14.6377 19.768 14.8567C19.9169 15.0758 19.9976 15.3339 20 15.5988V18.6753C19.9986 18.8555 19.9607 19.0335 19.8887 19.1986C19.8167 19.3638 19.712 19.5126 19.581 19.6362C19.45 19.7598 19.2953 19.8556 19.1263 19.9178C18.9573 19.9801 18.7775 20.0074 18.5976 19.9983C6.83136 19.2661 4.45719 9.29791 4.00819 5.48294C3.98735 5.2956 4.00639 5.10596 4.06407 4.92651C4.12175 4.74706 4.21675 4.58186 4.34283 4.44178C4.46891 4.3017 4.62321 4.18992 4.79558 4.11378C4.96794 4.03764 5.15447 3.99887 5.34289 4.00003H8.31368C8.57878 4.00081 8.83758 4.08092 9.0568 4.23005C9.27602 4.37918 9.44563 4.59051 9.54382 4.83686L10.2142 6.51667C10.3128 6.75854 10.338 7.02409 10.2865 7.28017C10.2351 7.53624 10.1094 7.77149 9.92516 7.95652L8.5474 9.33483C8.5474 9.33483 9.34084 14.7065 14.6673 15.3711Z" fill="white"/>
</svg>
