<svg width="178" height="61" viewBox="0 0 178 61" fill="none" xmlns="http://www.w3.org/2000/svg">
<path d="M24.9577 59.9577H1.04233V0.0423338H24.9577V59.9577Z" fill="#CB9B81" stroke="white" stroke-width="0.0846676"/>
<path d="M25 31.6689C21.0162 46.3229 17.1296 53.4871 12.9514 60H1V0H25V31.6689Z" fill="#DCA98C"/>
<path d="M25 0C19.2478 34.5183 6.66802 54.3284 1 60V0H25Z" fill="#E1AF93"/>
<path d="M15 0C12.8389 14.9825 4.47651 35.5322 1 42V0H15Z" fill="#DCA98C"/>
<path d="M6 0C4.18182 9.17797 4.09091 10.4661 1 19V0H6Z" fill="#CB9B81"/>
<path d="M1 60C6.66802 54.3284 19.2478 34.5183 25 0" stroke="white" stroke-width="0.0846676"/>
<path d="M1 20C4.09091 11.0169 4.18182 9.66102 6 0" stroke="white" stroke-width="0.0846676"/>
<path d="M13 60C17.1613 53.5632 21.0323 46.4828 25 32" stroke="white" stroke-width="0.0846676"/>
<path d="M1 42C4.47651 35.5322 12.8389 14.9825 15 0" stroke="white" stroke-width="0.0846676"/>
<path d="M37.1308 21.2471V28.1904H34.9775V13.6446H39.7236C41.2031 13.6446 42.4116 13.9742 43.3491 14.6334C44.3012 15.2925 44.7773 16.1641 44.7773 17.2481C44.7773 18.3174 44.3964 19.167 43.6347 19.7969C42.8877 20.4121 41.8696 20.8369 40.5805 21.0713L46.4692 28.1904L43.9204 28.498L38.8227 21.2471H37.1308ZM37.1308 20.5879H38.5371C41.1738 20.5879 42.4921 19.5479 42.4921 17.4678C42.4921 17.1163 42.4043 16.7208 42.2285 16.2813C41.8916 15.3585 41.1738 14.7505 40.0752 14.4576C39.0791 14.4576 38.0976 14.5821 37.1308 14.8311V20.5879ZM56.7456 24.7407L61.6016 13.6446H63.8428L64.6558 28.1904H62.4146L61.8213 15.688H61.7334L56.1963 28.1904H55.8887L50.4615 16.1934H50.3736L49.7803 28.1904H48.8136L49.6265 13.6446H51.67L56.7456 24.7407ZM75.2174 28.4541C72.9469 28.4541 71.0353 27.8389 69.4825 26.6084C67.9298 25.3779 67.1534 23.6128 67.1534 21.313C67.1534 19.9654 67.4098 18.7642 67.9225 17.7095C68.4352 16.6548 69.109 15.8272 69.9439 15.2266C71.6285 13.9962 73.5182 13.3809 75.6129 13.3809C76.8287 13.3809 78.0958 13.6006 79.4141 14.0401L79.1944 15.5342C78.5059 15.2413 77.9713 15.0215 77.5904 14.8751C76.4918 14.4795 75.3858 14.2818 74.2725 14.2818C72.7345 14.6334 71.5479 15.3951 70.713 16.5669C69.8927 17.7388 69.4825 19.2037 69.4825 20.9615C69.4825 23.1148 70.0465 24.7774 71.1744 25.9492C72.3023 27.1064 73.7891 27.6851 75.6348 27.6851C77.4805 27.6851 78.8575 27.2896 79.7657 26.4985V27.707C78.5059 28.2051 76.9898 28.4541 75.2174 28.4541ZM87.8919 28.1904V13.6446H92.0447C93.7733 13.6446 95.3333 14.0108 96.7249 14.7432C97.472 15.1241 98.1238 15.6001 98.6805 16.1714C99.2371 16.7427 99.6839 17.4751 100.021 18.3687C100.358 19.2476 100.526 20.229 100.526 21.313C100.526 22.8657 100.138 24.1768 99.3616 25.2461C97.9407 27.209 95.6409 28.1904 92.4622 28.1904H87.8919ZM92.0228 27.4434C93.8831 27.4434 95.3773 26.894 96.5052 25.7954C97.6331 24.6968 98.1971 23.0855 98.1971 20.9615C98.1971 19.3208 97.7503 17.9219 96.8567 16.7647C95.9632 15.5928 94.806 14.8165 93.3851 14.4356C92.1107 14.4356 90.9974 14.5894 90.0452 14.897V27.2456C90.514 27.3774 91.1732 27.4434 92.0228 27.4434ZM103.449 28.1904V13.6446H112.26L112.04 15.1168L107.953 14.4356C107.235 14.4356 106.444 14.5601 105.58 14.8091V20.1485H110.458V20.9834H105.58V27.3994L112.392 26.7183L112.172 28.1904H103.449ZM121.28 28.1904V13.6446H123.433V27.0039C124.327 27.2676 125.045 27.3994 125.587 27.3994L129.564 26.7183L129.3 28.1904H121.28ZM142.798 13.6446V22.5655C142.798 23.9278 142.651 24.9531 142.358 25.6416C142.226 25.9492 142.014 26.3008 141.721 26.6963C141.443 27.0772 141.113 27.3848 140.732 27.6191C139.766 28.1758 138.557 28.4541 137.107 28.4541C133.474 28.4541 131.658 26.5864 131.658 22.8511V13.6446H133.899V23.0269C133.899 23.4517 133.906 23.7959 133.921 24.0596C133.935 24.3233 134.009 24.6968 134.141 25.1802C134.287 25.6636 134.477 26.0518 134.712 26.3447C134.961 26.6377 135.342 26.9014 135.854 27.1357C136.382 27.3701 137.004 27.4873 137.722 27.4873C140.461 27.4873 141.831 26.0225 141.831 23.0928V13.6446H142.798ZM152.251 20.3682L157.986 28.1904H155.239L151.108 21.7744L146.45 28.1904H145.11L150.603 21.1372L145.374 13.6446H148.12L151.768 19.687L156.338 13.6446H157.678L152.251 20.3682ZM160.633 28.1904V13.6446H169.444L169.224 15.1168L165.138 14.4356C164.42 14.4356 163.629 14.5601 162.764 14.8091V20.1485H167.642V20.9834H162.764V27.3994L169.576 26.7183L169.356 28.1904H160.633Z" fill="#333333"/>
<path d="M35.2148 43.3557C35.3686 43.0276 35.6199 42.7149 35.9685 42.4175C36.3274 42.1099 36.6863 41.9561 37.0451 41.9561C37.2707 41.9561 37.4399 41.9868 37.5527 42.0484V43.3096C37.3271 43.0327 37.0093 42.8943 36.5991 42.8943C36.1684 42.8943 35.8301 43.084 35.584 43.4634C35.3379 43.8325 35.2148 44.3093 35.2148 44.8938V46.1397C35.2148 46.7139 35.2815 47.1086 35.4148 47.324C35.5481 47.5393 35.6763 47.6572 35.7993 47.6777H33.6306C33.7537 47.6572 33.8818 47.5444 34.0151 47.3394C34.1587 47.124 34.2305 46.7241 34.2305 46.1397V43.8172C34.2305 43.3865 34.1587 43.0943 34.0151 42.9404C33.8818 42.7764 33.728 42.6944 33.5537 42.6944L35.2148 41.9561V43.3557ZM40.7413 47.8623C40.1876 47.8623 39.7108 47.729 39.3109 47.4624C38.911 47.1855 38.6034 46.8318 38.3881 46.4011C38.183 45.9602 38.0805 45.4937 38.0805 45.0015C38.0805 44.3657 38.2035 43.8172 38.4496 43.3557C38.706 42.8943 39.0341 42.5457 39.434 42.3098C39.8339 42.074 40.2492 41.9561 40.6798 41.9561C41.2951 41.9561 41.8231 42.1817 42.264 42.6328C42.7152 43.0737 42.9613 43.689 43.0023 44.4785H39.0033C39.0033 44.9707 39.0956 45.4065 39.2802 45.7859C39.4647 46.155 39.7108 46.4421 40.0184 46.6472C40.3363 46.842 40.6798 46.9395 41.049 46.9395C42.0128 46.9395 42.6639 46.6318 43.0023 46.0166C42.91 46.5703 42.6588 47.0164 42.2487 47.3547C41.8385 47.6931 41.3361 47.8623 40.7413 47.8623ZM40.5722 42.4636C40.1723 42.4636 39.8288 42.6072 39.5416 42.8943C39.2545 43.1712 39.0802 43.5352 39.0187 43.9863H41.818C41.818 43.5147 41.6898 43.1455 41.4335 42.8789C41.1874 42.6021 40.9003 42.4636 40.5722 42.4636ZM48.407 47.8623C48.0789 47.8521 47.802 47.7649 47.5764 47.6008C47.3508 47.4368 47.2227 47.2471 47.1919 47.0317C47.0073 47.2983 46.7612 47.5034 46.4536 47.647C46.1563 47.7905 45.8589 47.8623 45.5615 47.8623C45.0899 47.8623 44.6951 47.729 44.3772 47.4624C44.0594 47.1855 43.9004 46.8267 43.9004 46.3857C43.9004 45.2476 44.9668 44.6785 47.0996 44.6785V44.5093C47.0996 43.9453 47.0176 43.53 46.8535 43.2634C46.6279 42.8841 46.2588 42.6944 45.7461 42.6944C45.3462 42.6944 45.013 42.8123 44.7464 43.0481C44.49 43.284 44.3618 43.5916 44.3618 43.971C44.3003 43.8684 44.249 43.7761 44.208 43.6941C44.1773 43.6121 44.1619 43.4993 44.1619 43.3557C44.1619 42.9866 44.3362 42.6636 44.6848 42.3867C45.0335 42.0996 45.4898 41.9561 46.0537 41.9561C46.8535 41.9561 47.4226 42.2227 47.761 42.7559C47.8738 42.9199 47.9558 43.125 48.0071 43.3711C48.0584 43.6172 48.084 43.9402 48.084 44.3401V46.1704C48.084 46.4883 48.1712 46.7344 48.3455 46.9087C48.53 47.083 48.7864 47.1702 49.1145 47.1702H49.3145L48.407 47.8623ZM47.0996 45.1399C46.2793 45.1399 45.7256 45.2424 45.4385 45.4475C45.1514 45.6526 45.0078 45.9295 45.0078 46.2781C45.0078 46.5652 45.0847 46.7908 45.2385 46.9548C45.3924 47.1189 45.5974 47.2009 45.8538 47.2009C46.0486 47.2009 46.2332 47.1548 46.4075 47.0625C46.5818 46.9702 46.7305 46.842 46.8535 46.678C47.0176 46.4627 47.0996 46.1704 47.0996 45.8013V45.1399ZM50.0895 38.2185C50.0895 37.7879 50.0177 37.4956 49.8742 37.3418C49.7409 37.1778 49.5871 37.0957 49.4128 37.0957H49.3205L51.0739 36.2959V46.1397C51.0739 46.5908 51.12 46.9292 51.2123 47.1548C51.3046 47.3804 51.4071 47.5342 51.5199 47.6162C51.6327 47.688 51.6891 47.7085 51.6891 47.6777H49.4743C49.4743 47.7085 49.5307 47.688 49.6435 47.6162C49.7563 47.5342 49.8588 47.3804 49.9511 47.1548C50.0434 46.9189 50.0895 46.5806 50.0895 46.1397V38.2185ZM58.5873 47.8623C58.0336 47.8623 57.5568 47.729 57.1569 47.4624C56.757 47.1855 56.4493 46.8318 56.234 46.4011C56.0289 45.9602 55.9264 45.4937 55.9264 45.0015C55.9264 44.3657 56.0494 43.8172 56.2955 43.3557C56.5519 42.8943 56.88 42.5457 57.2799 42.3098C57.6798 42.074 58.0951 41.9561 58.5258 41.9561C59.141 41.9561 59.6691 42.1817 60.11 42.6328C60.5611 43.0737 60.8072 43.689 60.8483 44.4785H56.8492C56.8492 44.9707 56.9415 45.4065 57.1261 45.7859C57.3107 46.155 57.5568 46.4421 57.8644 46.6472C58.1822 46.842 58.5258 46.9395 58.8949 46.9395C59.8588 46.9395 60.5099 46.6318 60.8483 46.0166C60.756 46.5703 60.5047 47.0164 60.0946 47.3547C59.6844 47.6931 59.182 47.8623 58.5873 47.8623ZM58.4181 42.4636C58.0182 42.4636 57.6747 42.6072 57.3876 42.8943C57.1005 43.1712 56.9262 43.5352 56.8646 43.9863H59.6639C59.6639 43.5147 59.5358 43.1455 59.2794 42.8789C59.0333 42.6021 58.7462 42.4636 58.4181 42.4636ZM63.6382 47.8623C63.3306 47.8623 63.0127 47.811 62.6846 47.7085C62.3565 47.606 62.0847 47.4727 61.8694 47.3086V45.9551C62.0642 46.437 62.3257 46.7856 62.6538 47.001C62.9922 47.2061 63.3562 47.3086 63.7459 47.3086C64.0637 47.3086 64.3201 47.2214 64.5149 47.0471C64.72 46.8728 64.8225 46.6831 64.8225 46.478C64.8225 46.2524 64.72 46.0628 64.5149 45.9089C64.3098 45.7551 63.9971 45.5808 63.5767 45.386C63.0332 45.1296 62.6128 44.8784 62.3154 44.6323C62.0181 44.3862 61.8694 44.053 61.8694 43.6326C61.8694 43.1712 62.0437 42.7764 62.3923 42.4483C62.741 42.1201 63.1973 41.9561 63.7612 41.9561C64.1509 41.9561 64.4893 42.0022 64.7764 42.0945C65.0635 42.1868 65.2788 42.2893 65.4224 42.4021L65.1763 43.5557C65.0532 43.207 64.8481 42.9456 64.561 42.7713C64.2739 42.5969 63.9714 42.5098 63.6536 42.5098C63.3767 42.5098 63.146 42.5918 62.9614 42.7559C62.7871 42.9199 62.7 43.1045 62.7 43.3096C62.7 43.5864 62.8076 43.8069 63.023 43.971C63.2485 44.135 63.5869 44.3145 64.0381 44.5093C64.5713 44.7349 64.9763 44.9656 65.2532 45.2014C65.5403 45.427 65.6838 45.75 65.6838 46.1704C65.6838 46.4678 65.6018 46.7446 65.4377 47.001C65.2737 47.2573 65.0327 47.4675 64.7148 47.6316C64.4072 47.7854 64.0483 47.8623 63.6382 47.8623ZM68.587 47.8623C68.0845 47.8623 67.7051 47.6931 67.4488 47.3547C67.1924 47.0061 67.0643 46.5908 67.0643 46.1089V42.6944H66.2029L68.0486 40.6026V42.0791H70.0174V42.6944H68.0486V45.9397C68.0486 46.3294 68.1512 46.6267 68.3562 46.8318C68.5613 47.0266 68.7972 47.124 69.0638 47.124C69.2688 47.124 69.4688 47.0625 69.6636 46.9395C69.8584 46.8164 70.0174 46.6472 70.1404 46.4319C69.9866 47.3855 69.4688 47.8623 68.587 47.8623ZM75.2885 47.8623C74.9604 47.8521 74.6836 47.7649 74.458 47.6008C74.2324 47.4368 74.1042 47.2471 74.0735 47.0317C73.8889 47.2983 73.6428 47.5034 73.3352 47.647C73.0378 47.7905 72.7405 47.8623 72.4431 47.8623C71.9714 47.8623 71.5766 47.729 71.2588 47.4624C70.9409 47.1855 70.782 46.8267 70.782 46.3857C70.782 45.2476 71.8484 44.6785 73.9812 44.6785V44.5093C73.9812 43.9453 73.8991 43.53 73.7351 43.2634C73.5095 42.8841 73.1404 42.6944 72.6277 42.6944C72.2278 42.6944 71.8945 42.8123 71.6279 43.0481C71.3716 43.284 71.2434 43.5916 71.2434 43.971C71.1819 43.8684 71.1306 43.7761 71.0896 43.6941C71.0588 43.6121 71.0434 43.4993 71.0434 43.3557C71.0434 42.9866 71.2178 42.6636 71.5664 42.3867C71.915 42.0996 72.3713 41.9561 72.9353 41.9561C73.7351 41.9561 74.3042 42.2227 74.6425 42.7559C74.7553 42.9199 74.8374 43.125 74.8886 43.3711C74.9399 43.6172 74.9655 43.9402 74.9655 44.3401V46.1704C74.9655 46.4883 75.0527 46.7344 75.227 46.9087C75.4116 47.083 75.6679 47.1702 75.9961 47.1702H76.196L75.2885 47.8623ZM73.9812 45.1399C73.1609 45.1399 72.6072 45.2424 72.32 45.4475C72.0329 45.6526 71.8894 45.9295 71.8894 46.2781C71.8894 46.5652 71.9663 46.7908 72.1201 46.9548C72.2739 47.1189 72.479 47.2009 72.7353 47.2009C72.9301 47.2009 73.1147 47.1548 73.289 47.0625C73.4633 46.9702 73.612 46.842 73.7351 46.678C73.8991 46.4627 73.9812 46.1704 73.9812 45.8013V45.1399ZM78.4938 47.8623C77.9913 47.8623 77.6119 47.6931 77.3556 47.3547C77.0992 47.0061 76.9711 46.5908 76.9711 46.1089V42.6944H76.1097L77.9554 40.6026V42.0791H79.9242V42.6944H77.9554V45.9397C77.9554 46.3294 78.058 46.6267 78.263 46.8318C78.4681 47.0266 78.704 47.124 78.9706 47.124C79.1756 47.124 79.3756 47.0625 79.5704 46.9395C79.7652 46.8164 79.9242 46.6472 80.0472 46.4319C79.8934 47.3855 79.3756 47.8623 78.4938 47.8623ZM83.2266 47.8623C82.6729 47.8623 82.1961 47.729 81.7962 47.4624C81.3963 47.1855 81.0887 46.8318 80.8733 46.4011C80.6683 45.9602 80.5657 45.4937 80.5657 45.0015C80.5657 44.3657 80.6888 43.8172 80.9349 43.3557C81.1912 42.8943 81.5193 42.5457 81.9192 42.3098C82.3191 42.074 82.7344 41.9561 83.1651 41.9561C83.7803 41.9561 84.3084 42.1817 84.7493 42.6328C85.2005 43.0737 85.4466 43.689 85.4876 44.4785H81.4886C81.4886 44.9707 81.5808 45.4065 81.7654 45.7859C81.95 46.155 82.1961 46.4421 82.5037 46.6472C82.8216 46.842 83.1651 46.9395 83.5342 46.9395C84.4981 46.9395 85.1492 46.6318 85.4876 46.0166C85.3953 46.5703 85.1441 47.0164 84.7339 47.3547C84.3238 47.6931 83.8213 47.8623 83.2266 47.8623ZM83.0574 42.4636C82.6575 42.4636 82.314 42.6072 82.0269 42.8943C81.7398 43.1712 81.5655 43.5352 81.5039 43.9863H84.3032C84.3032 43.5147 84.1751 43.1455 83.9187 42.8789C83.6726 42.6021 83.3855 42.4636 83.0574 42.4636Z" fill="#A6A6A6"/>
</svg>
