<svg width="21" height="21" viewBox="0 0 21 21" fill="none" xmlns="http://www.w3.org/2000/svg">
<path d="M17.6541 16.5951L20.5836 19.5231C20.7202 19.6646 20.7958 19.854 20.7941 20.0507C20.7924 20.2473 20.7135 20.4354 20.5745 20.5745C20.4354 20.7135 20.2473 20.7924 20.0507 20.7941C19.854 20.7958 19.6646 20.7202 19.5231 20.5836L16.5936 17.6541C14.6793 19.2943 12.204 20.1292 9.68734 19.9838C7.17065 19.8383 4.80812 18.7237 3.0955 16.8739C1.38287 15.024 0.453292 12.5828 0.501808 10.0624C0.550324 7.54193 1.57317 5.13825 3.35571 3.35571C5.13825 1.57317 7.54193 0.550324 10.0624 0.501808C12.5828 0.453292 15.024 1.38287 16.8739 3.0955C18.7237 4.80812 19.8383 7.17065 19.9838 9.68734C20.1292 12.204 19.2943 14.6793 17.6541 16.5936V16.5951ZM10.2501 18.5001C12.4382 18.5001 14.5366 17.6309 16.0838 16.0838C17.6309 14.5366 18.5001 12.4382 18.5001 10.2501C18.5001 8.06209 17.6309 5.96367 16.0838 4.41649C14.5366 2.86932 12.4382 2.00012 10.2501 2.00012C8.06209 2.00012 5.96367 2.86932 4.41649 4.41649C2.86932 5.96367 2.00012 8.06209 2.00012 10.2501C2.00012 12.4382 2.86932 14.5366 4.41649 16.0838C5.96367 17.6309 8.06209 18.5001 10.2501 18.5001Z" fill="#333333"/>
</svg>
